<svg width="1685" height="678" viewBox="0 0 1685 678" fill="none" xmlns="http://www.w3.org/2000/svg">
<path d="M161.411 215.693C178.98 182.206 227.619 83.2605 193.233 52.8596C184.761 45.4242 172.512 42.6712 161.576 44.9533C156.086 46.0584 150.854 48.2796 145.972 51.09C113.65 70.6998 91.5517 113.746 76.4253 147.41C62.6263 179.142 51.8298 212.102 43.3508 245.587C35.2082 278.31 28.7531 312.221 28.6485 345.853C28.8881 359.588 29.5462 376.212 37.2681 387.38C39.1434 390.08 41.7669 391.501 44.576 392.92C48.9971 394.99 53.5713 396.245 58.5842 396.333C107.541 396.099 161.931 310.632 187.084 272.223C212.785 232.95 232.303 189.951 258.741 151.088C285.121 111.969 315.823 75.6403 352.048 45.1899C376.439 25.1127 416.906 -4.12122 450.183 0.484697C461.872 2.22501 471.487 10.4017 474.934 21.7143C487.217 63.1664 442.151 131.46 419.966 165.921C369.249 245.978 310.09 320.832 243.573 388.144C211.476 421.418 177.666 453.074 146 486.352C130.692 502.648 115.785 519.659 103.983 538.432C86.8955 565.409 77.7392 597.271 103.198 622.472C117.897 636.828 139.587 649.302 160.407 649.866C232.028 651.035 278.97 531.515 304.161 475.623C318.014 443.519 331.341 410.946 345.536 378.865C360.098 346.382 377.767 315.14 398.98 286.435C406.285 276.819 413.836 267.235 423.807 260.119C428.909 256.563 435.153 253.883 441.551 254.56C446.312 255.159 451.242 257.072 454.246 260.886C458.933 267.294 458.62 275.684 458.134 283.159C456.403 300.81 451.186 317.833 446.152 334.718C435.772 368.336 424.011 401.509 414.869 435.47C410.38 452.316 406.307 469.291 404.54 486.559C403.78 494.795 403.442 503.042 405.414 510.839C406.359 514.829 408.453 518.434 412.007 519.702C418.011 521.905 423.56 520.447 428.857 516.25C436.572 510.1 442.114 500.743 446.781 491.722C454.311 476.729 459.755 460.865 465.194 444.82C479.59 400.714 495.422 357.076 514.781 314.756C534.391 271.919 575.174 229.425 617.896 209.978C629.026 205.212 641.232 202.294 653.347 203.73C659.41 204.479 665.253 206.094 670.731 208.86C682.44 215.421 682.451 230.904 681.306 242.54C678.485 266.319 671.086 289.163 664.548 312.067C646.642 373.549 624.61 433.81 604.895 494.315C590.056 544.072 571.141 617.284 627.903 646.792C639.985 653.392 654.05 656.085 666.285 648.687C674.259 644.119 681.357 636.135 687.212 627.065C699.146 608.204 706.503 586.019 712.21 564.223C714.611 554.756 716.997 544.171 718.893 534.518C723.153 510.153 724.826 485.114 728.724 460.559C732.599 437.258 736.63 412.914 749.398 392.515C756.026 381.847 767.214 373.361 780.304 373.289C786.678 373.05 792.89 373.338 799.155 375.074C821.197 380.799 828.168 404.154 829.622 424.153C831.039 443.067 829.019 460.546 826.204 478.617C823.568 494.795 820.475 512.344 820.522 528.03C820.523 538.238 822.167 547.533 826.003 553.528C831.908 563.105 843.872 565.961 854.766 567.044C883.211 570.55 892.659 534.206 897.481 511.901C904.237 477.914 905.241 442.988 905.809 408.176C906.223 361.279 905.414 314.179 908.869 267.295C910.859 243.794 913.076 220.007 921.607 197.746C926.063 186.549 932.994 175.464 944.221 169.863C955.651 164.392 969.205 164.625 980.896 169.566C986.819 172.15 992.103 176.189 996.496 180.88C1009.37 194.931 1016.34 213.273 1022.28 230.886C1033.37 265.667 1038.87 302.017 1039.62 338.316C1040.12 373.538 1038 408.912 1035.71 443.828C1033.19 502.655 1011.96 638.283 1084.53 659.484C1097.68 663.22 1112.57 662.475 1126.2 659.602C1195.52 644.9 1140.41 524.945 1124.89 483.403C1111.89 450.382 1096.81 418.029 1087.71 383.272C1083.92 367.04 1080.83 349.011 1088.5 332.796C1095.97 317.423 1114.03 308.744 1130.89 309.722C1157.37 311.922 1176.19 333.89 1190.65 353.471C1211.49 382.639 1227.2 415.924 1243.17 446.637C1249.53 459.278 1254.75 471.956 1260.16 484.774C1268.97 505.874 1281.52 533.544 1308.37 532.326C1316.78 532.019 1325.25 528.65 1332.32 524.03C1359.06 505.406 1338.24 459.947 1326.67 437.254C1310.44 406.244 1289.69 377.994 1268.63 350.052C1234.43 305.942 1194.39 254.357 1164.9 207.428C1151.61 186.998 1140.88 165.444 1134.57 141.595C1131.36 129.371 1128.76 116.97 1127.43 104.311C1126.46 94.6497 1125.82 84.5333 1128.02 74.8225C1130.8 60.5779 1143.48 51.2432 1157.98 53.1638C1181.26 56.3155 1207.45 81.3377 1224.58 96.782C1268.05 136.86 1304.62 183.505 1340.5 230.287C1369.19 267.764 1397.26 305.729 1424.32 344.414C1447.94 378.232 1470.7 412.849 1491.54 448.613C1494.46 453.469 1497.38 458.322 1500.38 463.121C1517.32 491.042 1538.31 519.134 1557.78 545.325C1570.65 562.352 1583.33 580.573 1601.53 591.951C1610.51 597.43 1620.99 600.404 1631.59 598.815C1636.92 597.986 1642.18 596.143 1647.1 593.366C1657.09 587.838 1666.06 580.195 1672.24 570.552C1681.68 556.091 1682.14 537.548 1676.24 521.632C1668.49 500.065 1653.46 482.218 1638.17 465.505C1610.61 436.476 1581.06 408.338 1551.53 381.101C1512.01 345.183 1476.89 304.484 1446.61 260.519C1426.76 231.157 1407.94 200.57 1396.18 166.955C1390.84 150.218 1385.98 131.13 1393.56 114.277C1400.75 99.0461 1422.97 89.0942 1439.12 87.8517C1451.74 86.7783 1464.79 89.6563 1476.59 94.3106C1500.51 103.729 1521.93 120.129 1538.11 139.778C1555.71 161.388 1567.58 187.146 1576.76 213.216C1587.63 243.858 1594.43 276.319 1603.12 307.205C1608.85 325.976 1617.25 355.795 1635.35 365.207C1642.7 369.064 1652.04 367.457 1659.25 363.594C1661.74 362.315 1664.01 360.627 1665.85 358.523C1685.49 334.024 1649.87 286.675 1636.17 265.27C1623.24 245.819 1611.01 225.817 1601.32 204.034C1591.49 181.78 1585.39 157.616 1583.6 133.011C1582.85 117.582 1582.77 98.6642 1596.15 88.1153C1623.53 69.1476 1654.88 78.4969 1671.47 107.364C1680.6 123.902 1684.19 143.208 1684.66 161.616C1684.92 173.772 1683.67 186.029 1680.53 197.781L1677.34 197.824C1675.58 192.09 1674.07 186.367 1672.61 180.617C1667.11 159.323 1661.61 136.81 1652.47 117.151C1648.22 107.843 1643.89 98.2734 1636.17 91.4078C1625.83 81.9054 1609.89 83.007 1599.57 92.131C1593.59 97.6685 1592.48 106.017 1593.66 113.908C1597.04 133.301 1609.18 150.033 1618.91 166.948C1641.67 204.49 1658.34 246.164 1668.25 289.461C1670.88 301.285 1673.37 313.151 1674.53 325.185C1676.02 339.861 1675.03 357.921 1660.41 365.743C1636.74 379.406 1619.91 363.3 1606.41 344.742C1589.24 320.421 1574.81 293.749 1560.19 267.925C1543.74 238.53 1528.03 207.237 1511.02 178.243C1500.02 159.316 1490.86 139.226 1478.2 121.314C1467.44 105.917 1450.63 91.7717 1430.71 93.753C1422.15 94.5066 1414.19 98.1866 1407.23 103.107C1391.39 113.087 1390.81 132.537 1394.77 149.056C1414.45 225.291 1508.74 311.662 1567.83 362.605C1604.08 393.553 1638.94 427.163 1662.7 469.2C1679.99 499.631 1695.86 539.948 1675.25 572.465C1668.77 582.683 1659.79 590.879 1650.24 598.164C1622.46 620.127 1586.73 612.823 1557.71 597.416C1523.51 579.763 1498.84 550.528 1478.01 519.08C1467.82 503.893 1458.5 488.305 1449.88 472.232C1431.65 437.145 1411.01 399.44 1392.15 364.36C1342.03 272.318 1288.87 180.664 1220.48 100.855C1205.58 84.6347 1173.44 52.8045 1149.79 59.2419C1125.88 68.224 1146.1 99.1091 1155.84 112.502C1169.39 130.854 1184.2 148.391 1195.99 168.003C1222.84 212.58 1250.47 258.472 1274.52 304.721C1296.32 346.81 1317.45 389.468 1334.45 433.791C1340.6 450.522 1346.36 467.613 1348.23 485.444C1349.4 497.284 1348.44 510.453 1340.51 520.015C1336.67 524.776 1331.28 527.813 1325.99 530.631C1293.57 548.697 1263.11 534.826 1237.21 512.53C1204.47 484.735 1188.73 441.996 1171.13 405.106C1162.21 386.164 1152.87 364.884 1140.13 349.446C1132.45 340.394 1123.63 335.164 1112.64 341.262C1096.76 352.464 1107.32 396.821 1111.33 413.834C1122.62 459.153 1140.28 503.062 1152.9 548.164C1160.01 575.159 1169.1 608.414 1160.65 635.802C1155.85 651.186 1143.14 661.748 1127.72 665.703C1107.32 671.325 1084.01 672.421 1064.61 661.977C989.276 623.079 990.73 414.637 993.593 337.882C994.505 317.73 996.748 289.264 998.521 268.939C1000.65 237.404 1005.57 174.826 962.258 171.567C902.148 167.922 913.542 298.127 914.349 337.694C915.922 372.846 917.755 408.096 918.508 443.355C918.931 467.226 918.97 490.984 916.224 514.904C914.726 527.283 912.515 539.507 908.287 551.49C902.647 568.13 890.97 584.903 873.17 590.837C865.967 593.395 858.479 594.028 850.958 593.731C832.581 593.296 812.502 586.432 801.511 570.228C785.524 546.864 789.057 516.611 792.672 490.939C794.476 479.174 796.684 467.569 799.378 456.121C802.937 438.285 813.275 409.874 805.908 393.588C801.735 384.191 790.371 380.274 780.311 379.768C762.476 378.728 751.747 395.662 746.355 410.66C732.826 449.48 733.887 491.107 729.86 531.667C726.981 555.357 723.239 578.909 716.727 601.999C707.422 635.579 687.646 676.791 647.535 677.974C624.454 678.66 598.509 665.554 582.122 649.983C566.901 635.609 557.12 615.012 553.31 594.995C540.5 526.633 574.029 442.103 605.806 382.605C619.747 356.461 635.03 331.489 649.123 305.655C660.46 284.269 679.517 249.179 677.006 224.958C676.337 219.582 673.892 214.419 669.119 211.643C664.234 209.024 658.563 207.346 653.021 206.808C629.732 204.751 609.693 221.481 596.924 239.445C580.663 262.379 571.834 289.532 563.809 316.174C562.121 321.397 560.857 326.956 558.989 332.139C547.855 365.663 536.309 399.254 520.331 430.969C503.612 463.422 483.503 496.03 455.757 521.435C442.317 533.44 422.926 543.315 405.225 532.863C389.045 522.852 391.894 500.948 394.735 485.128C398.181 467.592 403.833 450.613 409.568 433.836C420.491 399.272 465.076 295.745 453.729 266.264C451.8 261.01 446.372 258.559 441.246 258.116C435.931 257.71 430.778 260.271 426.52 263.76C403.697 283.853 392.13 327.544 380.991 355.983C355.749 422.02 328.522 486.818 293.076 548.609C267.466 591.356 230.379 649.192 179.246 661.825C160.599 666.416 140.171 663.039 123.226 654.85C111.923 649.448 101.211 643.132 91.6541 634.78C45.7808 595.158 68.0295 535.983 92.6801 490.948C145.821 396.71 223.208 322.209 299.845 248.324C349.578 200.428 401.813 153.174 437.769 93.5717C458.414 59.8085 485.105 -4.17528 416.431 17.497C353.51 40.4488 300.348 99.8503 263.372 154.206C236.898 192.965 218.234 236.224 195.035 276.971C177.72 307.871 159.138 338.466 136.515 366.017C110.648 397.612 70.6744 435.948 27.2423 412.881C-4.87255 393.942 -1.63823 340.586 2.71432 309.076C14.5997 230.81 51.723 142.073 102.309 81.0933C120.594 60.0518 148.746 33.429 179.046 42.3682C224.23 56.4169 205.404 120.611 192.95 152.786C184.41 174.696 174.071 195.869 162.119 216.104L161.411 215.693Z" fill="#EFE7F8"/>
</svg>
